<?xml version="1.0" encoding="UTF-8"?>
<svg id="Layer_1" data-name="Layer 1" xmlns="http://www.w3.org/2000/svg" viewBox="0 0 194.9 45">
  <defs>
    <style>
      .cls-1 {
        fill: #000;
      }

      .cls-1, .cls-2, .cls-3, .cls-4, .cls-5 {
        stroke-width: 0px;
      }

      .cls-2 {
        fill: #383630;
      }

      .cls-3 {
        fill: #ffa03f;
      }

      .cls-4 {
        fill: #d1c674;
        fill-rule: evenodd;
      }

      .cls-5 {
        fill: #606060;
      }
    </style>
  </defs>
  <g>
    <g>
      <path class="cls-2" d="M55,8.47h3.27v17.82h5.38v2.97h-8.64V8.47Z"/>
      <path class="cls-2" d="M65.07,8.47h3.27v20.79h-3.27V8.47Z"/>
      <path class="cls-2" d="M69.76,8.47h10.1v2.97h-3.42v17.82h-3.27V11.44h-3.42v-2.97Z"/>
      <path class="cls-2" d="M80.34,8.47h10.1v2.97h-3.42v17.82h-3.27V11.44h-3.42v-2.97Z"/>
      <path class="cls-2" d="M91.86,8.47h3.27v17.82h5.38v2.97h-8.64V8.47Z"/>
      <path class="cls-2" d="M105.2,17.23h4.49v2.97h-4.49v6.09h5.64v2.97h-8.91V8.47h8.91v2.97h-5.64v5.79Z"/>
      <path class="cls-3" d="M116.13,17.7h4.22v2.97h-4.22v8.58h-3.27V8.47h8.64v2.97h-5.38v6.27Z"/>
      <path class="cls-3" d="M133.27,29.26h-3.3l-.56-3.77h-4.01l-.56,3.77h-3l3.33-20.79h4.78l3.33,20.79ZM125.81,22.66h3.15l-1.57-10.52-1.57,10.52Z"/>
      <path class="cls-3" d="M141.61,29.26c-.18-.53-.3-.86-.3-2.55v-3.27c0-1.93-.65-2.64-2.14-2.64h-1.13v8.47h-3.27V8.47h4.93c3.39,0,4.84,1.57,4.84,4.78v1.63c0,2.14-.68,3.53-2.14,4.22,1.63.68,2.17,2.26,2.17,4.43v3.21c0,1.01.03,1.75.36,2.52h-3.33ZM138.05,11.44v6.39h1.28c1.22,0,1.96-.53,1.96-2.2v-2.05c0-1.49-.51-2.14-1.66-2.14h-1.57Z"/>
      <path class="cls-3" d="M153.64,23.23l2.23-14.76h4.54v20.79h-3.09v-14.91l-2.26,14.91h-3.09l-2.44-14.7v14.7h-2.85V8.47h4.54l2.41,14.76Z"/>
      <path class="cls-3" d="M166.06,17.23h4.49v2.97h-4.49v6.09h5.64v2.97h-8.91V8.47h8.91v2.97h-5.64v5.79Z"/>
      <path class="cls-3" d="M180.55,29.26c-.18-.53-.3-.86-.3-2.55v-3.27c0-1.93-.65-2.64-2.14-2.64h-1.13v8.47h-3.27V8.47h4.93c3.39,0,4.84,1.57,4.84,4.78v1.63c0,2.14-.68,3.53-2.14,4.22,1.63.68,2.17,2.26,2.17,4.43v3.21c0,1.01.03,1.75.36,2.52h-3.33ZM176.99,11.44v6.39h1.28c1.22,0,1.96-.53,1.96-2.2v-2.05c0-1.49-.51-2.14-1.66-2.14h-1.57Z"/>
      <path class="cls-3" d="M190.06,8.23c3.18,0,4.81,1.9,4.81,5.23v.65h-3.09v-.86c0-1.49-.59-2.05-1.63-2.05s-1.63.56-1.63,2.05c0,4.28,6.39,5.08,6.39,11.02,0,3.33-1.66,5.23-4.87,5.23s-4.87-1.9-4.87-5.23v-1.28h3.09v1.49c0,1.49.65,2.02,1.69,2.02s1.69-.53,1.69-2.02c0-4.28-6.39-5.08-6.39-11.02,0-3.33,1.63-5.23,4.81-5.23Z"/>
    </g>
    <g>
      <path class="cls-2" d="M55.29,34.86v1.76h2.54v.62h-2.54v2.04h-.72v-5.06h3.57v.63h-2.85Z"/>
      <path class="cls-2" d="M61.95,36.98v2.31h-.66v-.51c-.23.35-.66.55-1.26.55-.87,0-1.42-.46-1.42-1.13,0-.61.4-1.12,1.54-1.12h1.1v-.14c0-.59-.34-.92-1.03-.92-.46,0-.92.16-1.21.41l-.29-.52c.4-.32.97-.49,1.58-.49,1.05,0,1.64.51,1.64,1.55ZM61.26,38.12v-.53h-1.07c-.69,0-.88.27-.88.59,0,.38.32.62.85.62s.93-.24,1.11-.68Z"/>
      <path class="cls-2" d="M65.3,35.42v.67c-.06,0-.11,0-.16,0-.74,0-1.21.46-1.21,1.29v1.91h-.69v-3.83h.66v.64c.25-.45.72-.68,1.39-.68Z"/>
      <path class="cls-2" d="M72.51,37.09v2.2h-.69v-2.12c0-.75-.36-1.12-.99-1.12-.69,0-1.15.44-1.15,1.27v1.97h-.69v-2.12c0-.75-.36-1.12-.99-1.12-.69,0-1.15.44-1.15,1.27v1.97h-.69v-3.83h.66v.57c.27-.39.74-.61,1.32-.61s1.08.23,1.33.71c.29-.43.82-.71,1.47-.71.93,0,1.57.53,1.57,1.66Z"/>
      <path class="cls-2" d="M73.67,34.27c0-.25.2-.46.47-.46s.47.2.47.44c0,.26-.2.46-.47.46s-.47-.2-.47-.45ZM73.79,35.46h.69v3.83h-.69v-3.83Z"/>
      <path class="cls-2" d="M79.44,37.09v2.2h-.69v-2.12c0-.75-.38-1.12-1.03-1.12-.74,0-1.21.44-1.21,1.27v1.97h-.69v-3.83h.66v.58c.28-.39.77-.61,1.38-.61.93,0,1.59.53,1.59,1.66Z"/>
      <path class="cls-2" d="M84.41,35.46v3.31c0,1.35-.69,1.97-1.99,1.97-.7,0-1.41-.2-1.83-.57l.33-.53c.35.3.91.5,1.47.5.9,0,1.32-.42,1.32-1.29v-.3c-.33.4-.83.59-1.38.59-1.11,0-1.94-.75-1.94-1.86s.84-1.85,1.94-1.85c.57,0,1.09.21,1.42.63v-.59h.66ZM83.73,37.27c0-.74-.55-1.24-1.32-1.24s-1.32.5-1.32,1.24.55,1.25,1.32,1.25,1.32-.51,1.32-1.25Z"/>
      <path class="cls-2" d="M91,38.02h-2.69l-.56,1.26h-.74l2.29-5.06h.72l2.3,5.06h-.76l-.56-1.26ZM90.75,37.45l-1.09-2.48-1.09,2.48h2.18Z"/>
      <path class="cls-2" d="M92.57,37.37c0-1.14.85-1.95,2.02-1.95.69,0,1.26.28,1.56.82l-.53.34c-.25-.38-.62-.55-1.04-.55-.75,0-1.32.53-1.32,1.34s.56,1.35,1.32,1.35c.42,0,.79-.17,1.04-.55l.53.33c-.3.53-.87.82-1.56.82-1.18,0-2.02-.82-2.02-1.96Z"/>
      <path class="cls-2" d="M100.09,36.98v2.31h-.66v-.51c-.23.35-.66.55-1.26.55-.87,0-1.42-.46-1.42-1.13,0-.61.4-1.12,1.54-1.12h1.1v-.14c0-.59-.34-.92-1.03-.92-.46,0-.92.16-1.21.41l-.29-.52c.4-.32.97-.49,1.58-.49,1.05,0,1.64.51,1.64,1.55ZM99.39,38.12v-.53h-1.07c-.69,0-.88.27-.88.59,0,.38.32.62.85.62s.93-.24,1.11-.68Z"/>
      <path class="cls-2" d="M105.01,33.93v5.36h-.66v-.61c-.31.43-.8.65-1.37.65-1.12,0-1.94-.79-1.94-1.96s.82-1.95,1.94-1.95c.54,0,1.02.2,1.34.61v-2.11h.69ZM104.32,37.37c0-.82-.56-1.34-1.29-1.34s-1.29.53-1.29,1.34.56,1.35,1.29,1.35,1.29-.53,1.29-1.35Z"/>
      <path class="cls-2" d="M109.77,37.61h-3.11c.09.67.63,1.12,1.39,1.12.45,0,.82-.15,1.11-.46l.38.45c-.35.4-.87.62-1.51.62-1.24,0-2.06-.82-2.06-1.96s.82-1.95,1.92-1.95,1.89.79,1.89,1.97c0,.06,0,.14-.01.21ZM106.66,37.11h2.46c-.07-.64-.56-1.1-1.23-1.1s-1.16.45-1.23,1.1Z"/>
      <path class="cls-2" d="M117.1,37.09v2.2h-.69v-2.12c0-.75-.36-1.12-.99-1.12-.69,0-1.15.44-1.15,1.27v1.97h-.69v-2.12c0-.75-.36-1.12-.99-1.12-.69,0-1.15.44-1.15,1.27v1.97h-.69v-3.83h.66v.57c.27-.39.74-.61,1.32-.61s1.08.23,1.33.71c.29-.43.82-.71,1.47-.71.93,0,1.57.53,1.57,1.66Z"/>
      <path class="cls-2" d="M121.7,35.46l-1.86,4.21c-.34.81-.78,1.06-1.37,1.06-.37,0-.74-.12-.98-.35l.3-.52c.19.18.43.28.69.28.33,0,.54-.15.73-.59l.12-.27-1.69-3.82h.72l1.34,3.06,1.32-3.06h.68Z"/>
      <path class="cls-2" d="M125.07,35.13v.33h1.11v.57h-1.1v3.26h-.69v-3.26h-.65v-.57h.65v-.34c0-.74.45-1.24,1.26-1.24.3,0,.59.07.78.22l-.21.53c-.14-.11-.33-.18-.53-.18-.41,0-.62.23-.62.67Z"/>
      <path class="cls-2" d="M126.43,37.37c0-1.14.85-1.95,1.99-1.95s1.99.81,1.99,1.95-.84,1.96-1.99,1.96-1.99-.82-1.99-1.96ZM129.71,37.37c0-.82-.55-1.34-1.29-1.34s-1.29.53-1.29,1.34.56,1.35,1.29,1.35,1.29-.53,1.29-1.35Z"/>
      <path class="cls-2" d="M133.43,35.42v.67c-.06,0-.11,0-.16,0-.74,0-1.21.46-1.21,1.29v1.91h-.69v-3.83h.66v.64c.25-.45.72-.68,1.39-.68Z"/>
      <path class="cls-2" d="M138.03,37.04l-.92.94v1.31h-.72v-5.06h.72v2.83l2.75-2.83h.82l-2.16,2.28,2.3,2.78h-.85l-1.94-2.25Z"/>
      <path class="cls-2" d="M141.28,34.27c0-.25.2-.46.47-.46s.47.2.47.44c0,.26-.2.46-.47.46s-.47-.2-.47-.45ZM141.4,35.46h.69v3.83h-.69v-3.83Z"/>
      <path class="cls-2" d="M147.03,33.93v5.36h-.66v-.61c-.31.43-.8.65-1.37.65-1.12,0-1.94-.79-1.94-1.96s.82-1.95,1.94-1.95c.54,0,1.02.2,1.34.61v-2.11h.69ZM146.34,37.37c0-.82-.56-1.34-1.29-1.34s-1.29.53-1.29,1.34.56,1.35,1.29,1.35,1.29-.53,1.29-1.35Z"/>
      <path class="cls-2" d="M147.86,38.88l.29-.55c.33.23.85.4,1.34.4.64,0,.91-.2.91-.52,0-.86-2.42-.12-2.42-1.64,0-.69.61-1.15,1.6-1.15.5,0,1.06.13,1.39.35l-.3.55c-.35-.22-.73-.3-1.11-.3-.61,0-.9.22-.9.53,0,.9,2.43.17,2.43,1.65,0,.69-.64,1.13-1.65,1.13-.64,0-1.26-.2-1.58-.45Z"/>
    </g>
  </g>
  <g>
    <path class="cls-1" d="M26.94,41.8h.02s0,0,0,0c0,0-.01,0-.02,0Z"/>
    <path class="cls-3" d="M7.7,38.27c.96.96,1.97,1.48,2.74,1.76-5.73.38-7.04-4.31-7.04-4.31l2.78.48h0c.31.6.79,1.35,1.51,2.06Z"/>
    <path class="cls-2" d="M13.49,39.79l-1.75.15c-.76-.25-1.78-.73-2.69-1.71-.55-.59-.91-1.21-1.15-1.71h0s3.33.58,3.33.58h0c.29.47,1.04,1.57,2.26,2.7Z"/>
    <path class="cls-3" d="M24.85,42.37c-2.17.48-4.54.67-6.88-.17,0,0,0,0,0,0-1.89-.78-3.42-2.14-4.18-2.9t0,0c-.23-.23-.39-.4-.46-.49-.31-.34-.57-.67-.79-.96-.02-.03-.05-.07-.07-.1-.02-.03-.05-.06-.07-.09-.02-.03-.04-.06-.07-.09-.03-.05-.07-.09-.1-.14-.03-.04-.06-.08-.08-.12-.02-.03-.04-.05-.05-.08l2.03-.03,2.2-.04c.62.99,1.54,2.18,2.95,3.23.67.5,1.83,1.33,3.38,1.74.29.08.59.14.91.18.35.05.71.07,1.09.07.07,0,.15,0,.22,0Z"/>
    <polygon class="cls-1" points="26.95 41.81 26.95 41.81 26.95 41.81 26.95 41.81"/>
    <path class="cls-2" d="M33.53,39.06c.24.01.48.04.72.08,2.61.47,4.53,2.72,4.57,5.37.17-2.79-1.29-5.33-3.59-6.65-.01,0-.02-.02-.04-.02-.01,0-.03-.01-.04-.02-.01,0-.03-.02-.05-.02-.62.11-1.45.11-2.56-.14h-.04s-1.67-.38-1.67-.38c-.25-.05-.46-.13-.64-.23-.27.06-.55.13-.81.22-.78.26-1.52.65-2.17,1.16-.05.04-.09.07-.14.11-.05.04-.1.07-.15.11-.58.41-1.06.59-1.45.59-2.18,0-1.5-5.6-.79-7.19l-6.87-9.54-2.38-3.31c-1.4,4.12-1.69,12.59,1.72,17.96.63,1,1.4,1.89,2.3,2.63.13.11.26.21.39.31.26.2.51.37.77.54h0c.13.08.25.16.38.23.26.15.51.28.76.4.05.02.1.05.15.07.07.03.14.06.21.09.05.02.1.04.15.06.16.06.31.12.47.17.04.02.09.03.13.04.05.02.11.03.16.05.05.02.11.03.16.05.05.01.11.03.16.04.11.03.21.05.32.07.06.01.11.02.17.03.22.04.44.07.66.09.11,0,.21.01.32.02.13,0,.26,0,.39,0h.01c.12,0,.25,0,.37-.01.02,0,.05,0,.07,0,.14,0,.29-.02.43-.04h0c.21-.03.42-.07.63-.11.06-.01.11-.02.17-.04.02,0,.05-.01.07-.02,0,0,0,0,0,0h0s0,0,0,0h0s0,0,0,0h-.02s.02-.01.02-.01c.09-.02.19-.04.28-.06l3.18-.82c.36-.09.73-.17,1.1-.22.53-.07,1.07-.08,1.62.02.33.06.66.15.97.26,1.79.65,3.19,2.15,3.68,4.04.03-2.64-1.68-4.94-4.15-5.7-.22-.07-.46-.13-.69-.17-.09-.02-.19-.03-.28-.04.29-.03.57-.04.86-.03ZM32.39,38.41c-.07.4-.46.67-.86.6-.4-.07-.67-.46-.6-.86.07-.4.46-.67.86-.6.4.07.67.46.6.86Z"/>
    <path class="cls-1" d="M35.24,37.85h0s-.02-.01-.04-.02c.01,0,.03.01.04.02Z"/>
    <path class="cls-3" d="M36.83,36.76s-.35.79-1.71,1.03c-.62.11-1.45.11-2.56-.14h-.04s-1.67-.38-1.67-.38c-.25-.05-.46-.13-.64-.23-1.23-.63-1.14-2-1.14-2l7.77,1.72Z"/>
    <polygon class="cls-5" points="26.95 41.81 26.95 41.81 26.95 41.81 26.95 41.81"/>
    <polygon class="cls-5" points="26.96 41.81 26.95 41.81 26.95 41.81 26.96 41.81"/>
    <g>
      <path class="cls-4" d="M31.77,0c2.37.35,3.42,2.58,2.86,5.5-2.25-.47-3.21-2.8-2.86-5.5Z"/>
      <path class="cls-4" d="M13.63.11c1,2.55-.95,4.78-2.64,5.28-.69-2.05.55-4.91,2.64-5.28Z"/>
      <path class="cls-4" d="M18.8,1.43c-.46,2.04-2.69,3.2-5.06,2.64.82-1.74,2.66-3.48,5.06-2.64Z"/>
      <path class="cls-4" d="M31.33,3.74c-1.83.81-4.16-.35-4.62-1.98,1.83-1.49,4.57.36,4.62,1.98Z"/>
      <path class="cls-4" d="M7.91,9.34c-1.76-1.27-1.6-6.25,1.1-6.38,1.33,1.96.37,4.92-1.1,6.38Z"/>
      <path class="cls-4" d="M36.49,2.97c2.01.64,2.89,4.34,1.32,6.05-1.89-.75-2.27-4-1.32-6.05Z"/>
      <path class="cls-4" d="M13.52,4.73c.96-.13,2.68.07,2.64,1.1-.1,2.52-7.23-.48-2.64-1.1Z"/>
      <path class="cls-4" d="M33.3,5.39c-.37,1.79-2.7,1.65-3.85.77.48-1.53,2.67-1.93,3.85-.77Z"/>
      <path class="cls-4" d="M5.94,13.85c-2.18-.55-3.21-4.83-1.54-6.59,2.3.56,2.96,4.53,1.54,6.59Z"/>
      <path class="cls-4" d="M40.67,7.25c1.88,1.54,1.43,6.24-.99,6.81-1.27-1.74-1.39-6.29.99-6.81Z"/>
      <path class="cls-4" d="M13.08,8.02c-.85.91-2.31,1.79-4.18,1.32.38-1.3,2.88-2.68,4.18-1.32Z"/>
      <path class="cls-4" d="M36.71,9.23c-1.12.97-3.86.16-3.96-1.32,1.58-.68,3.3.13,3.96,1.32Z"/>
      <path class="cls-4" d="M10.44,11.32c-.36,1.66-2.01,2.6-3.85,2.42.21-1.67,2.46-3.35,3.85-2.42Z"/>
      <path class="cls-4" d="M38.69,13.74c-1.96.38-3.41-1.28-3.63-2.64,2.17-.52,3.42.82,3.63,2.64Z"/>
      <path class="cls-4" d="M43.86,12.53c1.14,3-.54,5.86-2.97,6.38-1.41-2.86.92-5.53,2.97-6.38Z"/>
      <path class="cls-4" d="M5.61,19.12c-3.05-.43-4.62-2.93-4.4-6.27,3.58-.49,4.05,3.51,4.4,6.27Z"/>
      <path class="cls-4" d="M5.83,18.47c-1.13-2.69,4.95-4.8,3.19-1.54-.48.88-2.07,1.44-3.19,1.54Z"/>
      <path class="cls-4" d="M39.68,18.47c-2.16.32-3.27-1.34-3.52-3.3,2.19-.36,3.3,1.31,3.52,3.3Z"/>
      <path class="cls-4" d="M39.13,23.74c-1.59-.56-3.05-2.56-2.31-4.4,1.48.24,3.17,2.15,2.31,4.4Z"/>
      <path class="cls-4" d="M45.28,19.23c.21,3.23-2.75,5.27-5.61,5.06.5-2.61,2.18-5,5.61-5.06Z"/>
      <path class="cls-4" d="M5.83,24.18c-2.79,1.03-5.05-2.18-5.83-4.62,3.19-.65,4.89,2.64,5.83,4.62Z"/>
      <path class="cls-4" d="M6.48,23.52c-1.16-2.07,2.34-5.24,2.64-3.19.2,1.41-1.45,2.7-2.64,3.19Z"/>
      <path class="cls-4" d="M36.82,28.36c-1.73-.44-2.26-3.9-.77-5.06,1.43.87,1.81,3.46.77,5.06Z"/>
      <path class="cls-4" d="M8.79,28.25c-1.11-1.16-.69-4.69.88-4.62,1.79.08.82,4.38-.88,4.62Z"/>
      <path class="cls-4" d="M8.57,29.13c-2.25,2.38-6.92-.16-7.58-2.53,2.61-1.92,6.52.25,7.58,2.53Z"/>
      <path class="cls-4" d="M11.87,27.37c1.43.78,1.74,3.18,1.32,5.17-1.93-.33-2.59-3.56-1.32-5.17Z"/>
      <path class="cls-4" d="M4.29,33.41c.02-3.36,8.5-1.94,8.46.22-.03,1.5-4.7,1.96-6.48,1.1-.68-.33-1.05-1.21-1.98-1.32Z"/>
      <path class="cls-4" d="M41.11,32.86c-.69,2.87-6.87,2.95-8.24.55,1.57-1.95,6.14-2.27,8.24-.55Z"/>
      <path class="cls-4" d="M44.41,26.38c.13,3.38-5.19,4.32-7.36,2.97.9-2.4,4.05-4.04,7.36-2.97Z"/>
      <path class="cls-4" d="M32.64,32.64c-1.42-1.65-.57-5.44,1.43-5.5,1.09,2.11.44,4.65-1.43,5.5Z"/>
    </g>
    <g>
      <path class="cls-3" d="M12.79,23.16c-4.5-8.11,2.51-17.68,11.58-16.34,9.2,1.29,13.16,12.64,6.55,19.24-1.67,1.65-3.84,2.74-6.1,3.03,2.19-.61,4.15-1.85,5.58-3.52,4.96-5.73,2.52-14.68-4.69-17.01-8.82-2.65-16.37,6.14-12.92,14.59h0Z"/>
      <path class="cls-3" d="M12.42,14.7c3.39-.57,6.81-.71,10.23-.73,3.43.02,6.84.15,10.23.73-3.39.58-6.81.71-10.23.73-3.43-.02-6.84-.15-10.23-.73h0Z"/>
      <path class="cls-3" d="M19.22,22.01c2.25-.57,4.53-.71,6.83-.73,2.3.02,4.58.15,6.83.73-2.25.57-4.53.71-6.83.73-2.3-.02-4.58-.15-6.83-.73h0Z"/>
      <path class="cls-3" d="M22.04,7.39c-.83,2.4-1.59,4.72-2.05,7.18-.49,2.46-.64,4.89-.76,7.43-1.96-4.82-.79-10.87,2.82-14.62h0Z"/>
      <path class="cls-3" d="M23.26,7.39c4.84,5.59,5.18,14.67.76,20.6,2.42-6.88,2.16-13.92-.76-20.6h0Z"/>
    </g>
  </g>
</svg>