<svg id="Group_196" data-name="Group 196" xmlns="http://www.w3.org/2000/svg" width="24" height="24" viewBox="0 0 24 24">
  <path id="Path_58" data-name="Path 58" d="M0,0H24V24H0Z" fill="none"/>
  <path id="Path_59" data-name="Path 59" d="M15,15m-3,0a3,3,0,1,0,3-3,3,3,0,0,0-3,3" fill="none" stroke="#000" stroke-linecap="round" stroke-linejoin="round" stroke-width="1.5"/>
  <path id="Path_60" data-name="Path 60" d="M13,17.5V22l2-1.5L17,22V17.5" fill="none" stroke="#000" stroke-linecap="round" stroke-linejoin="round" stroke-width="1.5"/>
  <path id="Path_61" data-name="Path 61" d="M10,19H5a2,2,0,0,1-2-2V7A2.006,2.006,0,0,1,5,5H19a2,2,0,0,1,2,2V17a2,2,0,0,1-1,1.73" fill="none" stroke="#000" stroke-linecap="round" stroke-linejoin="round" stroke-width="1.5"/>
  <path id="Path_62" data-name="Path 62" d="M6,9H18" fill="none" stroke="#000" stroke-linecap="round" stroke-linejoin="round" stroke-width="1.5"/>
  <path id="Path_63" data-name="Path 63" d="M6,12H9" fill="none" stroke="#000" stroke-linecap="round" stroke-linejoin="round" stroke-width="1.5"/>
  <path id="Path_64" data-name="Path 64" d="M6,15H8" fill="none" stroke="#000" stroke-linecap="round" stroke-linejoin="round" stroke-width="1.5"/>
</svg>
