<svg id="Group_10" data-name="Group 10" xmlns="http://www.w3.org/2000/svg" width="18" height="18" viewBox="0 0 18 18">
  <path id="Path_8" data-name="Path 8" d="M0,0H18V18H0Z" fill="none"/>
  <path id="Path_9" data-name="Path 9" d="M14,3V6a.75.75,0,0,0,.75.75h3" transform="translate(-3.5 -0.75)" fill="none" stroke="#000" stroke-linecap="round" stroke-linejoin="round" stroke-width="1"/>
  <path id="Path_10" data-name="Path 10" d="M14,16.5H6.5A1.5,1.5,0,0,1,5,15V4.5A1.5,1.5,0,0,1,6.5,3h5.25L15.5,6.75V15A1.5,1.5,0,0,1,14,16.5Z" transform="translate(-1.25 -0.75)" fill="none" stroke="#000" stroke-linecap="round" stroke-linejoin="round" stroke-width="1"/>
  <path id="Path_11" data-name="Path 11" d="M12,15.5V11" transform="translate(-3 -2.75)" fill="none" stroke="#000" stroke-linecap="round" stroke-linejoin="round" stroke-width="1"/>
  <path id="Path_12" data-name="Path 12" d="M9.5,14.5l1.875,1.875L13.25,14.5" transform="translate(-2.375 -3.625)" fill="none" stroke="#000" stroke-linecap="round" stroke-linejoin="round" stroke-width="1"/>
</svg>
