<svg width="17" height="13" viewBox="0 0 17 13" fill="none" xmlns="http://www.w3.org/2000/svg">
<path fill-rule="evenodd" clip-rule="evenodd" d="M1.48383 6.28044C1.48171 7.21315 1.4401 8.48534 2.01705 8.96088C2.55522 9.40445 2.93398 9.29016 3.9165 9.36227C4.89972 9.43506 6.97479 12.3257 8.57447 11.4114C9.3997 10.7624 9.46106 9.40173 9.46106 6.28044C9.46106 3.15915 9.3997 1.79851 8.57447 1.14949C6.97479 0.234466 4.89972 3.12581 3.9165 3.1986C2.93398 3.27072 2.55522 3.15642 2.01705 3.59999C1.4401 4.07553 1.48171 5.34772 1.48383 6.28044Z" stroke="#FEFEFE" stroke-width="1.70642" stroke-linecap="round" stroke-linejoin="round"/>
<path d="M14.4395 1.6582C16.3735 4.44274 16.3798 8.11576 14.4395 10.9057" stroke="#FEFEFE" stroke-width="1.70642" stroke-linecap="round" stroke-linejoin="round"/>
<path d="M12.5415 3.48438C13.536 5.2219 13.536 7.34381 12.5415 9.0759" stroke="#FEFEFE" stroke-width="1.70642" stroke-linecap="round" stroke-linejoin="round"/>
</svg>
