<?xml version="1.0" encoding="UTF-8"?>
<svg version="1.1" xmlns="http://www.w3.org/2000/svg" width="64" height="64">
<path d="M0 0 C8.34468007 4.97590182 13.53387008 11.86345977 16.109375 21.2578125 C17.10789012 32.35758522 16.45884702 41.9922991 9.359375 51.0703125 C3.70168013 57.1280464 -3.34488592 60.84888618 -11.625 61.59375 C-22.35447774 61.83515993 -31.19802606 60.58332943 -39.359375 52.9609375 C-46.75303791 44.73737365 -48.47252567 36.02335615 -48.203125 25.24609375 C-47.72879865 16.86039919 -44.11592977 9.8548755 -37.890625 4.2578125 C-27.15195714 -3.81766573 -12.32399863 -5.91386512 0 0 Z " fill="#FF5023" transform="translate(47.890625,2.7421875)"/>
<path d="M0 0 C4.10447392 0.51776621 5.95699523 2.64627444 8.75 5.5625 C9.94882812 6.80193359 9.94882812 6.80193359 11.171875 8.06640625 C11.77515625 8.70449219 12.3784375 9.34257812 13 10 C17.37829317 8.15290757 19.87879046 5.06291142 23 1.58203125 C25 0 25 0 27.13671875 0.1796875 C29.37197086 1.16376075 30.58861725 1.99435082 32 4 C31.68271266 8.08066769 29.28674693 10.02114378 26.4375 12.75 C25.61121094 13.54921875 24.78492187 14.3484375 23.93359375 15.171875 C23.29550781 15.77515625 22.65742187 16.3784375 22 17 C23.84709243 21.37829317 26.93708858 23.87879046 30.41796875 27 C32 29 32 29 32.05078125 31 C31 33 31 33 26 37 C22.37 33.37 18.74 29.74 15 26 C10.55377623 28.22311189 8.26791354 30.77347923 5 34.41796875 C3 36 3 36 0.86328125 35.8203125 C-1.37197086 34.83623925 -2.58861725 34.00564918 -4 32 C-3.68271266 27.91933231 -1.28674693 25.97885622 1.5625 23.25 C2.38878906 22.45078125 3.21507812 21.6515625 4.06640625 20.828125 C4.70449219 20.22484375 5.34257812 19.6215625 6 19 C4.46356148 15.31930113 2.21849055 13.01224796 -0.625 10.25 C-1.44226563 9.45078125 -2.25953125 8.6515625 -3.1015625 7.828125 C-3.72804688 7.22484375 -4.35453125 6.6215625 -5 6 C-3.35 4.02 -1.7 2.04 0 0 Z " fill="#FFEEED" transform="translate(18,14)"/>
</svg>
